<svg width="40" height="40" viewBox="0 0 40 40" fill="none" xmlns="http://www.w3.org/2000/svg">
<mask id="path-1-outside-1_1_194" maskUnits="userSpaceOnUse" x="9.93726" y="0.250061" width="22" height="39" fill="black">
<rect fill="white" x="9.93726" y="0.250061" width="22" height="39"/>
<path d="M11.0632 33.3202C11.7971 36.9296 14.6904 38.7501 19.6599 38.7501C20.0705 38.7501 20.4937 38.7343 20.9358 38.7116C26.6894 39.0397 30.008 37.2269 30.8089 33.3052C31.3093 30.5939 30.267 28.7734 29.0663 26.9998C28.5494 26.2421 28.3072 25.3748 28.3824 24.5624C28.4324 23.9855 28.6077 23.6951 28.8495 23.3043C29.26 22.6404 29.7666 21.8119 29.7498 19.6791C29.7484 19.6266 29.7428 19.5742 29.7329 19.5225C29.6159 19.0071 29.3158 17.6478 27.8068 17.4913C27.6949 17.4787 27.5814 17.4883 27.4737 17.5195C27.366 17.5506 27.2665 17.6026 27.1816 17.6721C27.0954 17.74 27.0245 17.8234 26.973 17.9173C26.9214 18.0112 26.8904 18.1138 26.8816 18.219C26.8233 19.0317 26.4394 19.6422 25.6722 20.1491C25.0885 20.5241 24.3212 20.7645 23.4625 20.8518H23.4288V9.28701L24.8549 7.13305C24.9595 6.96578 24.9923 6.76753 24.9468 6.57841L26.4226 6.22685C26.6373 6.17503 26.8212 6.04542 26.9339 5.86653C27.0466 5.68764 27.0789 5.47413 27.0236 5.27296C26.9683 5.07179 26.83 4.89945 26.639 4.79385C26.4481 4.68825 26.2202 4.65803 26.0055 4.70985L24.4715 5.0768L24.0712 3.87366L25.5302 3.5221C25.7431 3.46889 25.9249 3.33902 26.0361 3.16077C26.1473 2.98252 26.1788 2.77033 26.1238 2.57041C26.0688 2.37049 25.9317 2.19903 25.7424 2.09337C25.5531 1.9877 25.3269 1.95639 25.1131 2.00625L23.5704 2.37358L23.396 1.79663C23.3877 1.78086 23.3795 1.77316 23.3795 1.76547C23.3607 1.71225 23.333 1.66214 23.2974 1.617C23.273 1.57617 23.2455 1.53698 23.2153 1.49969C23.1779 1.46448 23.1366 1.43302 23.0922 1.40584C23.0511 1.37283 23.0064 1.34407 22.9588 1.32006C22.9146 1.29889 22.8665 1.28583 22.8171 1.2816C22.7608 1.26279 22.7017 1.25216 22.6419 1.25006C22.6332 1.25775 22.625 1.25006 22.6086 1.25006H19.2687C19.0478 1.25067 18.8361 1.33317 18.6799 1.47954C18.5237 1.62591 18.4357 1.82426 18.435 2.03126V19.7256C17.8229 19.3153 17.3212 18.777 16.9695 18.1536C16.6179 17.5301 16.4259 16.8385 16.4088 16.1335L16.3677 14.5084C16.3631 14.3738 16.3225 14.2425 16.2496 14.1264C16.1767 14.0104 16.0739 13.9133 15.9506 13.8442C15.8257 13.7789 15.685 13.7446 15.542 13.7446C15.3989 13.7446 15.2582 13.7789 15.1333 13.8442C14.9662 13.9303 13.7323 14.6727 13.6075 14.7584C11.8833 15.8447 11.206 17.9151 11.9654 19.7899C12.6161 21.4149 13.1748 22.8669 13.4433 24.2355C13.6268 25.1417 13.4178 26.0871 12.8686 26.9075C11.6255 28.7284 10.5586 30.58 11.0668 33.3221L11.0632 33.3202ZM20.1025 9.84204H21.7704V24.6863H20.1025V9.84204ZM21.9871 2.81014L23.2379 6.60726L22.1369 8.27927H20.1025V2.81014H21.9871ZM15.0763 23.952C14.7844 22.4677 14.2006 20.9441 13.5163 19.2487C13.0328 18.0532 13.4498 16.7485 14.5504 16.0531C14.5754 16.0374 14.6423 15.9985 14.7339 15.9435L14.7425 16.1858C14.7672 17.1402 15.0296 18.0759 15.5087 18.9184C15.9879 19.7608 16.6706 20.4867 17.5023 21.038C17.8013 21.2311 18.1133 21.4059 18.4362 21.5615V25.4675C18.4366 25.6744 18.5243 25.8728 18.6803 26.0194C18.8363 26.1659 19.0479 26.2486 19.2687 26.2494H22.6037C22.8246 26.2488 23.0363 26.1663 23.1925 26.0199C23.3487 25.8736 23.4368 25.6752 23.4374 25.4682V22.4127C23.5043 22.405 23.5708 22.4127 23.6373 22.405C24.7798 22.2954 25.813 21.9596 26.6394 21.4284C27.2818 21.0053 27.7732 20.4987 28.0987 19.9206C28.0819 21.4519 27.7568 21.9754 27.4148 22.53C27.1315 22.9916 26.8064 23.5147 26.7313 24.4439C26.6311 25.5848 26.9649 26.796 27.6652 27.843C28.9242 29.7027 29.533 31.0854 29.1746 33.0386C28.549 36.1011 25.8639 37.4527 20.9945 37.1638H20.8861C15.9917 37.4527 13.3234 36.1015 12.7064 33.054C12.3394 31.0616 12.9482 29.7104 14.2737 27.7645C15.0492 26.5925 15.3328 25.2486 15.0746 23.952H15.0763Z"/>
<path d="M18.4013 30.9377H23.4038C23.6249 30.9377 23.8369 30.8554 23.9933 30.7089C24.1496 30.5624 24.2375 30.3637 24.2375 30.1565C24.2375 29.9494 24.1496 29.7507 23.9933 29.6042C23.8369 29.4577 23.6249 29.3754 23.4038 29.3754H18.4013C18.1802 29.3754 17.9682 29.4577 17.8118 29.6042C17.6554 29.7507 17.5676 29.9494 17.5676 30.1565C17.5676 30.3637 17.6554 30.5624 17.8118 30.7089C17.9682 30.8554 18.1802 30.9377 18.4013 30.9377Z"/>
<path d="M18.4013 34.0625H23.4038C23.6249 34.0625 23.8369 33.9802 23.9933 33.8337C24.1496 33.6872 24.2375 33.4885 24.2375 33.2813C24.2375 33.0741 24.1496 32.8754 23.9933 32.7289C23.8369 32.5824 23.6249 32.5001 23.4038 32.5001H18.4013C18.1802 32.5001 17.9682 32.5824 17.8118 32.7289C17.6554 32.8754 17.5676 33.0741 17.5676 33.2813C17.5676 33.4885 17.6554 33.6872 17.8118 33.8337C17.9682 33.9802 18.1802 34.0625 18.4013 34.0625Z"/>
</mask>
<path d="M11.0632 33.3202C11.7971 36.9296 14.6904 38.7501 19.6599 38.7501C20.0705 38.7501 20.4937 38.7343 20.9358 38.7116C26.6894 39.0397 30.008 37.2269 30.8089 33.3052C31.3093 30.5939 30.267 28.7734 29.0663 26.9998C28.5494 26.2421 28.3072 25.3748 28.3824 24.5624C28.4324 23.9855 28.6077 23.6951 28.8495 23.3043C29.26 22.6404 29.7666 21.8119 29.7498 19.6791C29.7484 19.6266 29.7428 19.5742 29.7329 19.5225C29.6159 19.0071 29.3158 17.6478 27.8068 17.4913C27.6949 17.4787 27.5814 17.4883 27.4737 17.5195C27.366 17.5506 27.2665 17.6026 27.1816 17.6721C27.0954 17.74 27.0245 17.8234 26.973 17.9173C26.9214 18.0112 26.8904 18.1138 26.8816 18.219C26.8233 19.0317 26.4394 19.6422 25.6722 20.1491C25.0885 20.5241 24.3212 20.7645 23.4625 20.8518H23.4288V9.28701L24.8549 7.13305C24.9595 6.96578 24.9923 6.76753 24.9468 6.57841L26.4226 6.22685C26.6373 6.17503 26.8212 6.04542 26.9339 5.86653C27.0466 5.68764 27.0789 5.47413 27.0236 5.27296C26.9683 5.07179 26.83 4.89945 26.639 4.79385C26.4481 4.68825 26.2202 4.65803 26.0055 4.70985L24.4715 5.0768L24.0712 3.87366L25.5302 3.5221C25.7431 3.46889 25.9249 3.33902 26.0361 3.16077C26.1473 2.98252 26.1788 2.77033 26.1238 2.57041C26.0688 2.37049 25.9317 2.19903 25.7424 2.09337C25.5531 1.9877 25.3269 1.95639 25.1131 2.00625L23.5704 2.37358L23.396 1.79663C23.3877 1.78086 23.3795 1.77316 23.3795 1.76547C23.3607 1.71225 23.333 1.66214 23.2974 1.617C23.273 1.57617 23.2455 1.53698 23.2153 1.49969C23.1779 1.46448 23.1366 1.43302 23.0922 1.40584C23.0511 1.37283 23.0064 1.34407 22.9588 1.32006C22.9146 1.29889 22.8665 1.28583 22.8171 1.2816C22.7608 1.26279 22.7017 1.25216 22.6419 1.25006C22.6332 1.25775 22.625 1.25006 22.6086 1.25006H19.2687C19.0478 1.25067 18.8361 1.33317 18.6799 1.47954C18.5237 1.62591 18.4357 1.82426 18.435 2.03126V19.7256C17.8229 19.3153 17.3212 18.777 16.9695 18.1536C16.6179 17.5301 16.4259 16.8385 16.4088 16.1335L16.3677 14.5084C16.3631 14.3738 16.3225 14.2425 16.2496 14.1264C16.1767 14.0104 16.0739 13.9133 15.9506 13.8442C15.8257 13.7789 15.685 13.7446 15.542 13.7446C15.3989 13.7446 15.2582 13.7789 15.1333 13.8442C14.9662 13.9303 13.7323 14.6727 13.6075 14.7584C11.8833 15.8447 11.206 17.9151 11.9654 19.7899C12.6161 21.4149 13.1748 22.8669 13.4433 24.2355C13.6268 25.1417 13.4178 26.0871 12.8686 26.9075C11.6255 28.7284 10.5586 30.58 11.0668 33.3221L11.0632 33.3202ZM20.1025 9.84204H21.7704V24.6863H20.1025V9.84204ZM21.9871 2.81014L23.2379 6.60726L22.1369 8.27927H20.1025V2.81014H21.9871ZM15.0763 23.952C14.7844 22.4677 14.2006 20.9441 13.5163 19.2487C13.0328 18.0532 13.4498 16.7485 14.5504 16.0531C14.5754 16.0374 14.6423 15.9985 14.7339 15.9435L14.7425 16.1858C14.7672 17.1402 15.0296 18.0759 15.5087 18.9184C15.9879 19.7608 16.6706 20.4867 17.5023 21.038C17.8013 21.2311 18.1133 21.4059 18.4362 21.5615V25.4675C18.4366 25.6744 18.5243 25.8728 18.6803 26.0194C18.8363 26.1659 19.0479 26.2486 19.2687 26.2494H22.6037C22.8246 26.2488 23.0363 26.1663 23.1925 26.0199C23.3487 25.8736 23.4368 25.6752 23.4374 25.4682V22.4127C23.5043 22.405 23.5708 22.4127 23.6373 22.405C24.7798 22.2954 25.813 21.9596 26.6394 21.4284C27.2818 21.0053 27.7732 20.4987 28.0987 19.9206C28.0819 21.4519 27.7568 21.9754 27.4148 22.53C27.1315 22.9916 26.8064 23.5147 26.7313 24.4439C26.6311 25.5848 26.9649 26.796 27.6652 27.843C28.9242 29.7027 29.533 31.0854 29.1746 33.0386C28.549 36.1011 25.8639 37.4527 20.9945 37.1638H20.8861C15.9917 37.4527 13.3234 36.1015 12.7064 33.054C12.3394 31.0616 12.9482 29.7104 14.2737 27.7645C15.0492 26.5925 15.3328 25.2486 15.0746 23.952H15.0763Z" fill="#0C1524"/>
<path d="M18.4013 30.9377H23.4038C23.6249 30.9377 23.8369 30.8554 23.9933 30.7089C24.1496 30.5624 24.2375 30.3637 24.2375 30.1565C24.2375 29.9494 24.1496 29.7507 23.9933 29.6042C23.8369 29.4577 23.6249 29.3754 23.4038 29.3754H18.4013C18.1802 29.3754 17.9682 29.4577 17.8118 29.6042C17.6554 29.7507 17.5676 29.9494 17.5676 30.1565C17.5676 30.3637 17.6554 30.5624 17.8118 30.7089C17.9682 30.8554 18.1802 30.9377 18.4013 30.9377Z" fill="#0C1524"/>
<path d="M18.4013 34.0625H23.4038C23.6249 34.0625 23.8369 33.9802 23.9933 33.8337C24.1496 33.6872 24.2375 33.4885 24.2375 33.2813C24.2375 33.0741 24.1496 32.8754 23.9933 32.7289C23.8369 32.5824 23.6249 32.5001 23.4038 32.5001H18.4013C18.1802 32.5001 17.9682 32.5824 17.8118 32.7289C17.6554 32.8754 17.5676 33.0741 17.5676 33.2813C17.5676 33.4885 17.6554 33.6872 17.8118 33.8337C17.9682 33.9802 18.1802 34.0625 18.4013 34.0625Z" fill="#0C1524"/>
<path d="M11.0632 33.3202C11.7971 36.9296 14.6904 38.7501 19.6599 38.7501C20.0705 38.7501 20.4937 38.7343 20.9358 38.7116C26.6894 39.0397 30.008 37.2269 30.8089 33.3052C31.3093 30.5939 30.267 28.7734 29.0663 26.9998C28.5494 26.2421 28.3072 25.3748 28.3824 24.5624C28.4324 23.9855 28.6077 23.6951 28.8495 23.3043C29.26 22.6404 29.7666 21.8119 29.7498 19.6791C29.7484 19.6266 29.7428 19.5742 29.7329 19.5225C29.6159 19.0071 29.3158 17.6478 27.8068 17.4913C27.6949 17.4787 27.5814 17.4883 27.4737 17.5195C27.366 17.5506 27.2665 17.6026 27.1816 17.6721C27.0954 17.74 27.0245 17.8234 26.973 17.9173C26.9214 18.0112 26.8904 18.1138 26.8816 18.219C26.8233 19.0317 26.4394 19.6422 25.6722 20.1491C25.0885 20.5241 24.3212 20.7645 23.4625 20.8518H23.4288V9.28701L24.8549 7.13305C24.9595 6.96578 24.9923 6.76753 24.9468 6.57841L26.4226 6.22685C26.6373 6.17503 26.8212 6.04542 26.9339 5.86653C27.0466 5.68764 27.0789 5.47413 27.0236 5.27296C26.9683 5.07179 26.83 4.89945 26.639 4.79385C26.4481 4.68825 26.2202 4.65803 26.0055 4.70985L24.4715 5.0768L24.0712 3.87366L25.5302 3.5221C25.7431 3.46889 25.9249 3.33902 26.0361 3.16077C26.1473 2.98252 26.1788 2.77033 26.1238 2.57041C26.0688 2.37049 25.9317 2.19903 25.7424 2.09337C25.5531 1.9877 25.3269 1.95639 25.1131 2.00625L23.5704 2.37358L23.396 1.79663C23.3877 1.78086 23.3795 1.77316 23.3795 1.76547C23.3607 1.71225 23.333 1.66214 23.2974 1.617C23.273 1.57617 23.2455 1.53698 23.2153 1.49969C23.1779 1.46448 23.1366 1.43302 23.0922 1.40584C23.0511 1.37283 23.0064 1.34407 22.9588 1.32006C22.9146 1.29889 22.8665 1.28583 22.8171 1.2816C22.7608 1.26279 22.7017 1.25216 22.6419 1.25006C22.6332 1.25775 22.625 1.25006 22.6086 1.25006H19.2687C19.0478 1.25067 18.8361 1.33317 18.6799 1.47954C18.5237 1.62591 18.4357 1.82426 18.435 2.03126V19.7256C17.8229 19.3153 17.3212 18.777 16.9695 18.1536C16.6179 17.5301 16.4259 16.8385 16.4088 16.1335L16.3677 14.5084C16.3631 14.3738 16.3225 14.2425 16.2496 14.1264C16.1767 14.0104 16.0739 13.9133 15.9506 13.8442C15.8257 13.7789 15.685 13.7446 15.542 13.7446C15.3989 13.7446 15.2582 13.7789 15.1333 13.8442C14.9662 13.9303 13.7323 14.6727 13.6075 14.7584C11.8833 15.8447 11.206 17.9151 11.9654 19.7899C12.6161 21.4149 13.1748 22.8669 13.4433 24.2355C13.6268 25.1417 13.4178 26.0871 12.8686 26.9075C11.6255 28.7284 10.5586 30.58 11.0668 33.3221L11.0632 33.3202ZM20.1025 9.84204H21.7704V24.6863H20.1025V9.84204ZM21.9871 2.81014L23.2379 6.60726L22.1369 8.27927H20.1025V2.81014H21.9871ZM15.0763 23.952C14.7844 22.4677 14.2006 20.9441 13.5163 19.2487C13.0328 18.0532 13.4498 16.7485 14.5504 16.0531C14.5754 16.0374 14.6423 15.9985 14.7339 15.9435L14.7425 16.1858C14.7672 17.1402 15.0296 18.0759 15.5087 18.9184C15.9879 19.7608 16.6706 20.4867 17.5023 21.038C17.8013 21.2311 18.1133 21.4059 18.4362 21.5615V25.4675C18.4366 25.6744 18.5243 25.8728 18.6803 26.0194C18.8363 26.1659 19.0479 26.2486 19.2687 26.2494H22.6037C22.8246 26.2488 23.0363 26.1663 23.1925 26.0199C23.3487 25.8736 23.4368 25.6752 23.4374 25.4682V22.4127C23.5043 22.405 23.5708 22.4127 23.6373 22.405C24.7798 22.2954 25.813 21.9596 26.6394 21.4284C27.2818 21.0053 27.7732 20.4987 28.0987 19.9206C28.0819 21.4519 27.7568 21.9754 27.4148 22.53C27.1315 22.9916 26.8064 23.5147 26.7313 24.4439C26.6311 25.5848 26.9649 26.796 27.6652 27.843C28.9242 29.7027 29.533 31.0854 29.1746 33.0386C28.549 36.1011 25.8639 37.4527 20.9945 37.1638H20.8861C15.9917 37.4527 13.3234 36.1015 12.7064 33.054C12.3394 31.0616 12.9482 29.7104 14.2737 27.7645C15.0492 26.5925 15.3328 25.2486 15.0746 23.952H15.0763Z" stroke="#0C1524" stroke-width="0.75" mask="url(#path-1-outside-1_1_194)"/>
<path d="M18.4013 30.9377H23.4038C23.6249 30.9377 23.8369 30.8554 23.9933 30.7089C24.1496 30.5624 24.2375 30.3637 24.2375 30.1565C24.2375 29.9494 24.1496 29.7507 23.9933 29.6042C23.8369 29.4577 23.6249 29.3754 23.4038 29.3754H18.4013C18.1802 29.3754 17.9682 29.4577 17.8118 29.6042C17.6554 29.7507 17.5676 29.9494 17.5676 30.1565C17.5676 30.3637 17.6554 30.5624 17.8118 30.7089C17.9682 30.8554 18.1802 30.9377 18.4013 30.9377Z" stroke="#0C1524" stroke-width="0.75" mask="url(#path-1-outside-1_1_194)"/>
<path d="M18.4013 34.0625H23.4038C23.6249 34.0625 23.8369 33.9802 23.9933 33.8337C24.1496 33.6872 24.2375 33.4885 24.2375 33.2813C24.2375 33.0741 24.1496 32.8754 23.9933 32.7289C23.8369 32.5824 23.6249 32.5001 23.4038 32.5001H18.4013C18.1802 32.5001 17.9682 32.5824 17.8118 32.7289C17.6554 32.8754 17.5676 33.0741 17.5676 33.2813C17.5676 33.4885 17.6554 33.6872 17.8118 33.8337C17.9682 33.9802 18.1802 34.0625 18.4013 34.0625Z" stroke="#0C1524" stroke-width="0.75" mask="url(#path-1-outside-1_1_194)"/>
</svg>
