<svg width="35" height="32" viewBox="0 0 35 32" fill="none" xmlns="http://www.w3.org/2000/svg">
<path d="M32.1191 0.318573C32.6496 0.0469277 33.2944 0.209098 33.6436 0.697479H33.6553L33.71 0.7883C34.0665 1.37948 33.8955 2.16367 33.3184 2.53146L33.3174 2.53049L28.0244 5.96506C31.5647 7.17859 33.8935 9.20297 33.8936 12.2815V23.1028C33.8936 24.7095 32.9616 26.0424 31.7207 27.049L31.7217 27.05C30.4732 28.0642 28.7497 28.8913 26.7705 29.511C24.0286 30.3697 20.656 30.8654 17.04 30.8654C13.4242 30.8654 10.0524 30.3696 7.31055 29.511C5.32451 28.8912 3.60778 28.0642 2.35938 27.05C1.11843 26.0434 0.1875 24.7096 0.1875 23.1028V12.2815C0.187565 9.46556 2.13721 7.52184 5.18555 6.29123C8.23354 5.06077 12.4275 4.51879 17.04 4.51877C19.7974 4.51877 22.3993 4.7121 24.6992 5.13107L32.0088 0.383026L32.1191 0.318573ZM8.89551 27.3332C10.9028 27.8692 13.2566 28.2198 15.8115 28.3039V20.0227C13.3183 19.9409 10.9715 19.6247 8.89551 19.1135V27.3332ZM25.1855 19.1135C23.1099 19.625 20.7632 19.9467 18.2695 20.0227V28.3039C20.8246 28.2198 23.1782 27.8683 25.1855 27.3322V19.1135ZM2.64551 23.1028C2.64551 23.6201 2.94545 24.2959 3.87793 25.0539L3.87891 25.0549C4.5127 25.5731 5.37157 26.0663 6.4375 26.509V18.3703C4.94571 17.8269 3.65567 17.1583 2.64551 16.3967V23.1028ZM31.4355 16.3967C30.4254 17.1583 29.1353 17.8269 27.6436 18.3703V26.509C28.7049 26.0662 29.5688 25.5728 30.2021 25.0549L30.3711 24.9123C31.1773 24.2067 31.4355 23.588 31.4355 23.1028V16.3967ZM17.04 7.05881C12.5584 7.05883 8.71307 7.59228 6.08301 8.65451C4.75485 9.19244 3.89544 9.78352 3.36914 10.3947C2.84682 11.0015 2.64554 11.6356 2.64551 12.2815C2.64551 12.9228 3.28861 14.2486 6.16113 15.5324V15.5334L6.67383 15.7522C9.30276 16.8236 12.9387 17.5051 17.04 17.5051C21.4151 17.5051 25.2615 16.7305 27.9199 15.5334L27.9961 15.7043L27.9199 15.5324C30.7924 14.2486 31.4355 12.9228 31.4355 12.2815C31.4355 11.6356 31.2341 11.0014 30.7119 10.3947C30.1856 9.78356 29.3261 9.19241 27.998 8.65451C27.1767 8.32228 26.2295 8.04026 25.1865 7.81467L16.6543 13.3586C16.0747 13.7359 15.3106 13.5486 14.958 12.9514C14.6111 12.3632 14.7722 11.5802 15.3496 11.2112L21.4375 7.24826C20.064 7.12174 18.5905 7.05881 17.04 7.05881Z" fill="#0C1524" stroke="#0C1524" stroke-width="0.375"/>
<rect x="3.84316" y="2.07665" width="22.8543" height="2.45804" rx="1.22902" transform="rotate(25.0873 3.84316 2.07665)" fill="#0C1524" stroke="#0C1524" stroke-width="0.375"/>
</svg>
