<svg width="40" height="41" viewBox="0 0 40 41" fill="none" xmlns="http://www.w3.org/2000/svg">
<path d="M24 0.15625C24.7173 0.156336 25.2987 0.737782 25.2988 1.45508V6.02637C25.2988 6.74379 24.7174 7.32609 24 7.32617H23.8408L23.8486 13.9727C25.7495 14.481 27.1705 15.309 28.0547 16.4258C28.9599 17.5691 29.2892 18.9976 29.0156 20.6465C28.8117 21.863 28.8917 22.7639 29.1279 23.541C29.3655 24.3224 29.763 24.9868 30.2129 25.7373L30.2471 25.7949L30.2598 25.8125C31.0516 26.9152 31.6128 28.1666 31.9102 29.4912C32.207 30.8137 32.2336 32.1823 31.9902 33.5156L31.9912 33.5166C31.5907 36.3018 29.9194 38.045 27.8623 39.0859C25.811 40.1238 23.3706 40.4668 21.3984 40.4668C20.9321 40.4701 20.4661 40.4487 20.002 40.4033C18.1062 40.5786 15.3564 40.4233 12.957 39.4482C10.5489 38.4696 8.47916 36.6575 8.00684 33.5225C7.7636 32.1865 7.79289 30.8148 8.0918 29.4902C8.39078 28.1655 8.95354 26.9146 9.74707 25.8125C10.2205 25.0443 10.6301 24.3739 10.874 23.585C11.1175 22.7975 11.1974 21.8831 10.9902 20.6328C10.7167 18.9881 11.046 17.5643 11.9512 16.4229C12.8353 15.3082 14.2565 14.4791 16.1572 13.9648V7.32617H16C15.2825 7.32617 14.7012 6.74384 14.7012 6.02637V1.45508C14.7013 0.737729 15.2826 0.15625 16 0.15625H24ZM23.8398 20.9482C23.8395 21.2339 23.7254 21.508 23.5234 21.71C23.3215 21.9118 23.0472 22.0251 22.7617 22.0254H17.2344C17.0929 22.0255 16.953 21.9974 16.8223 21.9434C16.6915 21.8893 16.5727 21.81 16.4727 21.71C16.3726 21.6099 16.2924 21.4912 16.2383 21.3604C16.1843 21.2297 16.1571 21.0896 16.1572 20.9482V16.248C14.9973 16.6324 14.1735 17.1528 13.6709 17.8008C13.144 18.4803 12.9558 19.3146 13.124 20.3164L13.1963 20.7539C13.3376 21.7773 13.2906 22.8195 13.0557 23.8281C12.7873 24.9804 12.2787 26.0629 11.5654 27.0068C10.9096 27.8928 10.445 28.906 10.1992 29.9805C9.95354 31.0547 9.93236 32.1683 10.1377 33.251L10.1396 33.2578V33.2588C10.5413 36.0721 12.7787 37.3487 15.0469 37.916C17.3127 38.4827 19.5565 38.3252 19.8613 38.3037C19.8754 38.3027 19.896 38.3008 19.9062 38.3008H20.0986V38.3018H20.1113L20.1338 38.3037L20.6914 38.3281C21.5542 38.3497 23.2427 38.3227 24.9443 37.8896C27.2125 37.3123 29.4509 36.0302 29.8564 33.2334V33.2236L29.8594 33.209C30.0648 32.1267 30.0444 31.0134 29.7988 29.9395C29.5532 28.8656 29.088 27.8542 28.4326 26.9688V26.9678C27.7193 26.0244 27.2119 24.9419 26.9434 23.79C26.6747 22.6376 26.651 21.4415 26.874 20.2793C27.0375 19.2775 26.8491 18.4433 26.3232 17.7637C25.8217 17.1154 24.9999 16.5943 23.8398 16.209V20.9482ZM22.8574 33.2988C23.5747 33.2991 24.1562 33.8813 24.1562 34.5986C24.156 35.3158 23.5746 35.8972 22.8574 35.8975H17.1426C16.4253 35.8974 15.844 35.3159 15.8438 34.5986C15.8438 33.8812 16.4252 33.2989 17.1426 33.2988H22.8574ZM19.998 24.4766C20.5031 24.4771 21.0034 24.5775 21.4697 24.7715C21.936 24.9655 22.3594 25.2496 22.7158 25.6074L22.8467 25.7451C23.4832 26.4486 23.8388 27.3652 23.8398 28.3184C23.8407 29.2072 23.533 30.0693 22.9697 30.7568C22.4064 31.4444 21.6216 31.9149 20.75 32.0889C19.8784 32.2628 18.9735 32.1295 18.1895 31.7109C17.9352 31.5752 17.6985 31.4119 17.4834 31.2256L17.2754 31.0312C17.0102 30.7654 16.7836 30.4602 16.6045 30.124C16.1867 29.3398 16.0531 28.4347 16.2275 27.5635C16.4021 26.6924 16.8732 25.9085 17.5605 25.3457C18.248 24.7829 19.1096 24.4757 19.998 24.4766ZM20.3291 26.6709C19.9468 26.5949 19.5498 26.6541 19.2061 26.8379C18.8623 27.0216 18.5926 27.3186 18.4434 27.6787C18.3153 27.9877 18.283 28.3267 18.3477 28.6523L18.3867 28.8076C18.4998 29.1806 18.7385 29.5031 19.0625 29.7197C19.3865 29.9364 19.7761 30.0341 20.1641 29.9961C20.552 29.958 20.9158 29.7861 21.1914 29.5107C21.3478 29.3542 21.472 29.1684 21.5566 28.9639C21.6413 28.7592 21.6848 28.5398 21.6846 28.3184C21.6845 28.2082 21.6734 28.0989 21.6523 27.9922L21.5996 27.7939C21.535 27.599 21.435 27.416 21.3027 27.2549C21.0554 26.9536 20.7114 26.7469 20.3291 26.6709ZM18.3135 19.876H21.6855V17.6113H18.3135V19.876ZM18.3135 16.1562H21.6855V14.1826H18.3135V16.1562ZM18.3135 12.7275H21.6855V10.7549H18.3135V12.7275ZM18.3135 9.29883H21.6855V7.32617H18.3135V9.29883ZM17.2988 4.72754H22.7012V2.75488H17.2988V4.72754Z" fill="#0C1524" stroke="#0C1524" stroke-width="0.3125"/>
</svg>
