<svg width="50" height="40" viewBox="0 0 50 40" fill="none" xmlns="http://www.w3.org/2000/svg">
<path d="M38.0723 37.9529C38.7613 39.2877 40.2955 39.9993 42.0871 39.9993C43.242 39.9993 44.5034 39.704 45.7138 39.0888C48.801 37.5206 50.3386 34.4925 49.2528 32.2737C49.1777 32.1208 34.5113 2.20075 34.5113 2.20075C34.5113 2.20075 34.4503 2.06375 34.4409 2.04646C33.7519 0.711636 32.2177 0 30.4261 0C29.2712 0 28.0098 0.295961 26.7994 0.910497C23.9441 2.36104 22.7249 4.98678 23.0506 7.21813L25.306 22.5416L20.3415 12.4071L20.2966 12.314C20.2088 12.1251 20.182 12.032 20.0868 11.8471C19.3978 10.5123 17.8636 9.80064 16.072 9.80064C14.9171 9.80064 13.6557 10.0966 12.4453 10.7111C9.91707 11.9954 8.39628 14.2746 8.5511 16.2639H8.54976L8.51424 30.3024C8.19855 30.2526 7.86946 30.2273 7.53165 30.2273C6.37681 30.2273 5.1154 30.5233 3.90492 31.1378C0.817747 32.7061 -0.766726 35.7574 0.365998 37.9529C1.05502 39.2877 2.58922 39.9993 4.3808 39.9993C5.53564 39.9993 6.79706 39.704 8.00753 39.0888C10.4687 37.8385 11.9747 35.6464 11.9104 33.6964L11.9359 23.7567L18.3522 37.0397C18.5861 37.5039 18.7698 37.7926 18.8529 37.9535C19.5419 39.2884 21.0761 40 22.8677 40C24.0225 40 25.2839 39.7047 26.4944 39.0895C29.3188 37.6549 30.6352 35.0086 30.2646 32.8524L30.1238 31.874L27.971 17.2715L37.8002 37.4893C37.9027 37.6782 37.9952 37.8066 38.0716 37.9535L38.0723 37.9529Z" fill="#FFAE00"/>
</svg>
