<svg width="34" height="23" viewBox="0 0 34 23" fill="none" xmlns="http://www.w3.org/2000/svg">
<path d="M29.9424 0.15625C32.0676 0.156383 33.8018 1.84216 33.8018 3.92383V18.3682C33.8017 20.4498 32.0676 22.1356 29.9424 22.1357H4.0166C1.89127 22.1357 0.156313 20.4499 0.15625 18.3682V3.92383C0.15625 1.84207 1.89124 0.15625 4.0166 0.15625H29.9424ZM2.32031 18.3682C2.32037 19.2768 3.07488 20.0176 4.0166 20.0176H7.56348V15.6133C6.48367 15.1926 5.71191 14.1619 5.71191 12.9512V9.49609H2.32031V18.3682ZM28.2461 12.9512C28.2461 14.162 27.4745 15.1927 26.3945 15.6133V20.0176H29.9424C30.884 20.0174 31.6376 19.2767 31.6377 18.3682V9.49609H28.2461V12.9512ZM19.9131 12.9512C19.9131 14.1619 19.1413 15.1926 18.0615 15.6133V20.0176H24.2305V15.6133C23.1505 15.1927 22.3789 14.162 22.3789 12.9512V9.49609H19.9131V12.9512ZM11.5801 12.9512C11.5801 14.1622 10.8078 15.1938 9.72754 15.6143V20.0176H15.8975V15.6143C14.8172 15.1938 14.0449 14.1622 14.0449 12.9512V9.49609H11.5801V12.9512ZM7.87598 12.9512C7.87598 13.3576 8.21894 13.6981 8.64551 13.6982C9.07223 13.6982 9.41504 13.3577 9.41504 12.9512V9.49609H7.87598V12.9512ZM16.21 12.9512C16.21 13.3577 16.5528 13.6982 16.9795 13.6982C17.4061 13.6981 17.749 13.3576 17.749 12.9512V9.49609H16.21V12.9512ZM24.543 12.9512C24.543 13.3577 24.8858 13.6982 25.3125 13.6982C25.7392 13.6982 26.082 13.3577 26.082 12.9512V9.49609H24.543V12.9512ZM4.0166 2.27441C3.07484 2.27441 2.32031 3.01513 2.32031 3.92383V7.37891H31.6377V3.92383C31.6377 3.01521 30.884 2.27455 29.9424 2.27441H4.0166Z" fill="#0C1524" stroke="#0C1524" stroke-width="0.3125"/>
</svg>
