<svg width="40" height="40" viewBox="0 0 40 40" fill="none" xmlns="http://www.w3.org/2000/svg">
<path d="M16.8486 22.4889V21.0282C16.8486 20.8086 16.7565 20.5981 16.5925 20.4429C16.4285 20.2876 16.2061 20.2004 15.9742 20.2004C15.7423 20.2004 15.5199 20.2876 15.3559 20.4429C15.1919 20.5981 15.0998 20.8086 15.0998 21.0282V22.4889C15.0998 22.7085 15.1919 22.919 15.3559 23.0742C15.5199 23.2295 15.7423 23.3167 15.9742 23.3167C16.2061 23.3167 16.4285 23.2295 16.5925 23.0742C16.7565 22.919 16.8486 22.7085 16.8486 22.4889Z" fill="#0C1524"/>
<path d="M27.6499 19.2616C26.4984 19.2674 25.3958 19.7029 24.5816 20.4737C23.7674 21.2445 23.3072 22.2882 23.3011 23.3782V34.7569C23.2952 35.408 23.0194 36.0309 22.533 36.4914C22.0466 36.9519 21.3886 37.2131 20.7007 37.2188H19.4515C18.7635 37.2132 18.1054 36.9521 17.6189 36.4916C17.1325 36.0311 16.8566 35.4081 16.8507 34.7569V33.8341C17.7337 33.6525 18.5323 33.2089 19.1304 32.5678C19.7285 31.9267 20.0949 31.1216 20.176 30.2697L21.4873 15.2293C22.6262 14.1863 23.4101 12.845 23.7386 11.3775C24.067 9.91002 23.925 8.3831 23.3307 6.9925C22.7364 5.6019 21.7169 4.41099 20.4029 3.57244C19.0889 2.73388 17.5404 2.28589 15.9557 2.28589C14.371 2.28589 12.8224 2.73388 11.5084 3.57244C10.1944 4.41099 9.17494 5.6019 8.58064 6.9925C7.98635 8.3831 7.84431 9.91002 8.17274 11.3775C8.50117 12.845 9.2851 14.1863 10.4241 15.2293L11.7353 30.2697C11.8184 31.1271 12.1903 31.9366 12.7963 32.5787C13.4023 33.2209 14.2103 33.6616 15.101 33.8361V34.7427C15.1077 35.8326 15.5683 36.876 16.3828 37.6464C17.1974 38.4168 18.3001 38.8519 19.4515 38.8573H20.7057C21.8571 38.8514 22.9596 38.4158 23.7737 37.645C24.5879 36.8743 25.048 35.8306 25.0541 34.7407V23.3746C25.0394 23.0429 25.0957 22.7118 25.2197 22.4012C25.3436 22.0907 25.5326 21.807 25.7754 21.5674C26.0181 21.3278 26.3096 21.1371 26.6322 21.0068C26.9548 20.8766 27.3019 20.8094 27.6526 20.8094C28.0034 20.8094 28.3505 20.8766 28.6731 21.0068C28.9957 21.1371 29.2871 21.3278 29.5299 21.5674C29.7726 21.807 29.9616 22.0907 30.0856 22.4012C30.2095 22.7118 30.2659 23.0429 30.2511 23.3746V32.1794C30.2511 32.399 30.3433 32.6095 30.5073 32.7647C30.6712 32.92 30.8937 33.0072 31.1256 33.0072C31.3575 33.0072 31.5799 32.92 31.7439 32.7647C31.9079 32.6095 32 32.399 32 32.1794V23.3746C31.9929 22.285 31.5321 21.2421 30.7177 20.472C29.9033 19.702 28.801 19.267 27.6499 19.2616ZM15.9754 3.97281C17.4657 3.97905 18.904 4.49234 20.0277 5.419C21.1514 6.34565 21.8856 7.62389 22.0965 9.02044H9.8386C10.05 7.62142 10.7866 6.34125 11.9136 5.41425C13.0405 4.48725 14.4824 3.97541 15.9754 3.97241V3.97281ZM9.83818 10.6633H22.1123C21.9026 12.0627 21.1663 13.3434 20.0388 14.2701C18.9113 15.1967 17.4684 15.7069 15.9752 15.7069C14.4821 15.7069 13.0391 15.1967 11.9116 14.2701C10.7841 13.3434 10.0479 12.0627 9.83818 10.6633ZM13.5187 30.1349L12.3112 16.5221C13.4419 17.0825 14.6991 17.3752 15.9754 17.3752C17.2517 17.3752 18.509 17.0825 19.6397 16.5221L18.4318 30.144C18.3867 30.7321 18.1081 31.2822 17.652 31.6838C17.1959 32.0854 16.5961 32.3087 15.9731 32.3087C15.3502 32.3087 14.7504 32.0854 14.2943 31.6838C13.8382 31.2822 13.5596 30.7321 13.5145 30.144L13.5187 30.1349Z" fill="#0C1524"/>
<path d="M19.4238 16.8269C18.346 17.3087 17.1695 17.5622 15.9756 17.5623C14.7814 17.5623 13.6044 17.3089 12.5264 16.8269L13.7051 30.1179L13.71 30.1677L13.7061 30.1746C13.7576 30.6953 14.0092 31.1827 14.418 31.5427C14.8389 31.9134 15.3951 32.1208 15.9736 32.1208C16.552 32.1207 17.1075 31.9132 17.5283 31.5427C17.9488 31.1724 18.2039 30.6672 18.2451 30.1296V30.1277L19.4238 16.8269ZM15.9746 20.0125C16.2529 20.0126 16.5219 20.1173 16.7217 20.3064C16.9218 20.4959 17.0361 20.7554 17.0361 21.0281V22.489C17.0361 22.7617 16.9218 23.0212 16.7217 23.2107C16.5219 23.3998 16.2529 23.5045 15.9746 23.5046C15.6962 23.5046 15.4264 23.3999 15.2266 23.2107C15.0264 23.0212 14.9121 22.7616 14.9121 22.489V21.0281C14.9121 20.7555 15.0264 20.4959 15.2266 20.3064C15.4264 20.1172 15.6962 20.0125 15.9746 20.0125ZM10.0605 10.8503C10.3033 12.1182 10.9958 13.2744 12.0303 14.1248C13.1234 15.0231 14.5248 15.5193 15.9756 15.5193C17.4263 15.5192 18.8269 15.023 19.9199 14.1248C20.9545 13.2744 21.6469 12.1183 21.8896 10.8503H10.0605ZM15.9746 4.15991C14.5243 4.16309 13.1246 4.66078 12.0322 5.55933C10.9985 6.40982 10.3069 7.56558 10.0625 8.83276H21.873C21.6293 7.56773 20.9391 6.41337 19.9082 5.56323C18.8187 4.66495 17.4226 4.16598 15.9746 4.15991ZM32.1875 32.1794C32.1875 32.4521 32.0732 32.7116 31.873 32.9011C31.6733 33.0902 31.4043 33.195 31.126 33.1951C30.8476 33.1951 30.5778 33.0903 30.3779 32.9011C30.1778 32.7116 30.0635 32.4521 30.0635 32.1794V23.366C30.077 23.0611 30.0253 22.7564 29.9111 22.4705C29.797 22.1846 29.623 21.9226 29.3984 21.7009C29.1737 21.4791 28.9026 21.3016 28.6025 21.1804C28.3025 21.0593 27.9791 20.9968 27.6523 20.9968C27.3256 20.9969 27.0022 21.0593 26.7021 21.1804C26.4021 21.3016 26.1319 21.4791 25.9072 21.7009C25.6825 21.9227 25.5077 22.1844 25.3936 22.4705C25.2794 22.7564 25.2277 23.0612 25.2412 23.366L25.2422 23.3748H25.2412V34.7419C25.2347 35.8846 24.7524 36.9763 23.9023 37.781C23.0527 38.5853 21.9045 39.0384 20.707 39.0447H19.4502C18.2528 39.039 17.104 38.5869 16.2539 37.783C15.4034 36.9786 14.9201 35.8866 14.9131 34.7439V33.9841C14.0455 33.7837 13.2588 33.342 12.6602 32.7078C12.0264 32.0362 11.636 31.1878 11.5488 30.2878V30.2859L10.2432 15.3162C9.10646 14.2554 8.32201 12.9009 7.99023 11.4187C7.65316 9.91258 7.79854 8.34524 8.4082 6.9187C9.01774 5.49249 10.0627 4.27295 11.4072 3.41479C12.7519 2.55668 14.3362 2.09839 15.9561 2.09839C17.5757 2.09846 19.1594 2.55675 20.5039 3.41479C21.8485 4.27294 22.8934 5.49247 23.5029 6.9187C24.1126 8.34524 24.2589 9.91258 23.9219 11.4187C23.5901 12.9012 22.8041 14.2553 21.667 15.3162L20.3633 30.2859L20.3623 30.2878C20.277 31.1818 19.8931 32.0256 19.2676 32.696C18.6765 33.3296 17.8982 33.7733 17.0381 33.9802V34.7556L17.0518 34.9783C17.1101 35.4952 17.3537 35.9819 17.748 36.3552C18.1991 36.7821 18.8112 37.0258 19.4531 37.031H20.6992C21.3411 37.0257 21.9534 36.7821 22.4043 36.3552C22.8545 35.929 23.1075 35.3546 23.1133 34.7566V23.3767C23.1198 22.2341 23.603 21.1423 24.4531 20.3376C25.303 19.5333 26.4518 19.08 27.6494 19.074H27.6504C28.8476 19.0797 29.9967 19.532 30.8467 20.3357C31.697 21.1397 32.18 22.2314 32.1875 23.3738V32.1794Z" stroke="#0C1524" stroke-width="0.375"/>
</svg>
